<svg width="80" height="80" viewBox="0 0 80 80" fill="none" xmlns="http://www.w3.org/2000/svg">
<path fill-rule="evenodd" clip-rule="evenodd" d="M39.9994 80C47.225 80.0006 54.3158 78.0437 60.5185 74.3373C66.7212 70.6308 71.804 65.3132 75.227 58.9494C78.65 52.5856 80.2854 45.4133 79.9592 38.1946C79.6331 30.9758 77.3577 23.9803 73.3748 17.9511L41.577 53.2844C40.0918 54.9352 38.0425 55.9701 35.8325 56.1857C33.6224 56.4012 31.4118 55.7816 29.6357 54.4489L15.1122 43.5556C14.1693 42.8483 13.5459 41.7954 13.3793 40.6285C13.2126 39.4616 13.5162 38.2763 14.2234 37.3333C14.9306 36.3903 15.9834 35.7669 17.1502 35.6002C18.317 35.4335 19.5023 35.7372 20.4452 36.4444L34.9686 47.3378L67.6152 11.0667C62.8858 6.5516 57.1216 3.26489 50.8275 1.49432C44.5334 -0.276251 37.9012 -0.476693 31.5117 0.910544C25.1221 2.29778 19.17 5.23039 14.1766 9.45161C9.18319 13.6728 5.30067 19.0539 2.869 25.1237C0.437332 31.1936 -0.469331 37.767 0.228397 44.2685C0.926125 50.77 3.20697 57.0013 6.87122 62.4169C10.5355 67.8324 15.4714 72.267 21.2468 75.3323C27.0222 78.3977 33.461 80.0004 39.9994 80Z" fill="#01A49A"/>
</svg>
