<svg width="76" height="80" viewBox="0 0 76 80" fill="none" xmlns="http://www.w3.org/2000/svg">
<g filter="url(#filter0_d_400_3578)">
<circle cx="36" cy="36" r="24" fill="#F9AE43"/>
</g>
<path d="M26.6768 24.5H28.9893C29.5226 24.4992 30.038 24.6944 30.4365 25.0488C30.835 25.4033 31.089 25.8922 31.1504 26.4219L31.5381 29.7891C31.6141 30.4527 31.3852 31.1031 30.9189 31.5693L28.4473 34.041L28.1914 34.2979L28.3555 34.6211C30.3327 38.5079 33.4922 41.6672 37.3789 43.6445L37.7021 43.8086L37.959 43.5527L40.417 41.0938H40.418C40.6485 40.8631 40.9283 40.6871 41.2363 40.5801C41.5443 40.4731 41.8725 40.4376 42.1963 40.4756H42.1982L45.5898 40.8623V40.8633C46.6911 40.9943 47.5108 41.9183 47.5 43.0068V45.3232C47.4999 46.5632 46.4689 47.5704 45.2656 47.4961C34.1209 46.8036 25.1964 37.8921 24.5039 26.7344C24.4295 25.5311 25.4367 24.5001 26.6768 24.5Z" stroke="white"/>
<defs>
<filter id="filter0_d_400_3578" x="0" y="0" width="80" height="80" filterUnits="userSpaceOnUse" color-interpolation-filters="sRGB">
<feFlood flood-opacity="0" result="BackgroundImageFix"/>
<feColorMatrix in="SourceAlpha" type="matrix" values="0 0 0 0 0 0 0 0 0 0 0 0 0 0 0 0 0 0 127 0" result="hardAlpha"/>
<feOffset dx="4" dy="4"/>
<feGaussianBlur stdDeviation="8"/>
<feComposite in2="hardAlpha" operator="out"/>
<feColorMatrix type="matrix" values="0 0 0 0 0.444167 0 0 0 0 0.444167 0 0 0 0 0.444167 0 0 0 0.25 0"/>
<feBlend mode="normal" in2="BackgroundImageFix" result="effect1_dropShadow_400_3578"/>
<feBlend mode="normal" in="SourceGraphic" in2="effect1_dropShadow_400_3578" result="shape"/>
</filter>
</defs>
</svg>
