<svg width="28" height="28" viewBox="0 0 28 28" fill="none" xmlns="http://www.w3.org/2000/svg">
<g clip-path="url(#clip0_400_3646)">
<path d="M14 0C10.2878 0 6.72437 1.47591 4.10156 4.10047C1.47606 6.72609 0.000751294 10.2869 0 14C0 17.7115 1.47656 21.275 4.10156 23.8995C6.72437 26.5241 10.2878 28 14 28C17.7122 28 21.2756 26.5241 23.8984 23.8995C26.5234 21.275 28 17.7115 28 14C28 10.2885 26.5234 6.72503 23.8984 4.10047C21.2756 1.47591 17.7122 0 14 0Z" fill="url(#paint0_linear_400_3646)"/>
<path d="M6.33719 13.8521C10.4191 12.0741 13.1403 10.9019 14.5009 10.3355C18.3903 8.71827 19.1975 8.43739 19.7247 8.42788C19.8406 8.42602 20.0987 8.45467 20.2672 8.59085C20.4072 8.70569 20.4466 8.861 20.4662 8.97005C20.4837 9.07899 20.5078 9.32727 20.4881 9.52108C20.2781 11.7348 19.3659 17.1069 18.9022 19.5864C18.7075 20.6356 18.3203 20.9873 17.9462 21.0216C17.1325 21.0965 16.5156 20.4844 15.7281 19.9684C14.4966 19.1605 13.8009 18.6578 12.6044 17.8697C11.2219 16.9588 12.1187 16.4581 12.9062 15.64C13.1119 15.4258 16.695 12.1675 16.7628 11.872C16.7716 11.835 16.7803 11.6972 16.6972 11.6246C16.6163 11.5517 16.4959 11.5767 16.4084 11.5964C16.2837 11.6244 14.3172 12.9255 10.5022 15.4995C9.94437 15.8832 9.43906 16.0702 8.98406 16.0604C8.48531 16.0497 7.52281 15.7778 6.8075 15.5455C5.9325 15.2604 5.23469 15.1097 5.29594 14.6256C5.32656 14.3736 5.67437 14.1157 6.33719 13.8521Z" fill="white"/>
</g>
<defs>
<linearGradient id="paint0_linear_400_3646" x1="1400" y1="0" x2="1400" y2="2800" gradientUnits="userSpaceOnUse">
<stop stop-color="#2AABEE"/>
<stop offset="1" stop-color="#229ED9"/>
</linearGradient>
<clipPath id="clip0_400_3646">
<rect width="28" height="28" fill="white"/>
</clipPath>
</defs>
</svg>
