<svg width="76" height="80" viewBox="0 0 76 80" fill="none" xmlns="http://www.w3.org/2000/svg">
<g filter="url(#filter0_d_400_3581)">
<circle cx="36" cy="36" r="24" fill="#F9AE43"/>
</g>
<path d="M46.3656 25.4118C46.1193 25.2057 45.8222 25.0706 45.5059 25.0211C45.1895 24.9716 44.8658 25.0095 44.5691 25.1307L24.0931 33.4656C23.7622 33.6027 23.4805 33.8381 23.2854 34.1404C23.0903 34.4427 22.991 34.7978 23.0006 35.1583C23.0103 35.5189 23.1285 35.868 23.3396 36.1593C23.5506 36.4505 23.8445 36.6701 24.1823 36.789L28.6004 38.3355L30.9946 46.3167C30.9992 46.3328 31.0141 46.3432 31.0209 46.3581C31.0459 46.4217 31.0819 46.4802 31.1272 46.531C31.1969 46.6085 31.2862 46.6655 31.3855 46.6958C31.3969 46.7004 31.4049 46.7108 31.4163 46.7131H31.4232L31.4266 46.7142C31.5151 46.7333 31.6069 46.7285 31.6929 46.7004L31.7215 46.6946C31.804 46.6652 31.8786 46.6171 31.9398 46.554C31.9466 46.546 31.958 46.5448 31.9649 46.5379L35.4082 42.7052L40.4332 46.6289C40.7384 46.8698 41.1144 47 41.5018 47C42.3406 47 43.064 46.4077 43.2366 45.5815L46.9645 27.1231C47.0281 26.8097 47.006 26.4848 46.9005 26.1832C46.795 25.8815 46.6101 25.6145 46.3656 25.4107M32.2438 39.8508L31.4358 43.8114L29.7501 38.1903L38.1099 33.7998L32.3992 39.5593C32.3202 39.639 32.2662 39.7404 32.2438 39.8508ZM42.1166 45.3498C42.0952 45.4543 42.0474 45.5515 41.978 45.632C41.9085 45.7125 41.8197 45.7737 41.7201 45.8096C41.6227 45.8468 41.5176 45.858 41.4147 45.8423C41.3118 45.8265 41.2146 45.7843 41.1326 45.7197L35.6894 41.4687C35.5756 41.3801 35.4329 41.3381 35.2897 41.3509C35.1465 41.3637 35.0134 41.4305 34.9168 41.5379L32.5203 44.2009L33.3272 40.2518L41.5429 31.9664C41.6391 31.8691 41.6977 31.7403 41.708 31.6032C41.7183 31.4662 41.6797 31.33 41.5991 31.2191C41.5186 31.1083 41.4014 31.0301 41.2687 30.9987C41.136 30.9673 40.9965 30.9848 40.8755 31.048L29.0324 37.2684L24.556 35.6989C24.4376 35.6588 24.3345 35.5828 24.2606 35.4813C24.1868 35.3798 24.1459 35.2578 24.1434 35.1319C24.1374 35.0047 24.1709 34.8788 24.2394 34.7718C24.3078 34.6647 24.4077 34.582 24.5251 34.535L44.9977 26.2001C45.1027 26.1556 45.2178 26.1414 45.3304 26.1589C45.4429 26.1764 45.5485 26.2249 45.6354 26.2992C45.7218 26.3692 45.7871 26.4622 45.8239 26.5677C45.8606 26.6732 45.8674 26.7869 45.8434 26.8961L42.1166 45.3498Z" fill="white"/>
<defs>
<filter id="filter0_d_400_3581" x="0" y="0" width="80" height="80" filterUnits="userSpaceOnUse" color-interpolation-filters="sRGB">
<feFlood flood-opacity="0" result="BackgroundImageFix"/>
<feColorMatrix in="SourceAlpha" type="matrix" values="0 0 0 0 0 0 0 0 0 0 0 0 0 0 0 0 0 0 127 0" result="hardAlpha"/>
<feOffset dx="4" dy="4"/>
<feGaussianBlur stdDeviation="8"/>
<feComposite in2="hardAlpha" operator="out"/>
<feColorMatrix type="matrix" values="0 0 0 0 0.444167 0 0 0 0 0.444167 0 0 0 0 0.444167 0 0 0 0.25 0"/>
<feBlend mode="normal" in2="BackgroundImageFix" result="effect1_dropShadow_400_3581"/>
<feBlend mode="normal" in="SourceGraphic" in2="effect1_dropShadow_400_3581" result="shape"/>
</filter>
</defs>
</svg>
